<svg id="Layer_1" data-name="Layer 1" xmlns="http://www.w3.org/2000/svg" xmlns:xlink="http://www.w3.org/1999/xlink" viewBox="0 0 27 32"><defs><filter id="filter-1" x="-50" y="-50" width="200" height="200" name="filter-1"><feOffset result="shadowOffsetOuter1" dy="2" in="SourceAlpha"/><feGaussianBlur result="shadowBlurOuter1" stdDeviation="2" in="shadowOffsetOuter1"/><feColorMatrix result="shadowMatrixOuter1" values="0 0 0 0 0 0 0 0 0 0 0 0 0 0 0 0 0 0 0.05 0" in="shadowBlurOuter1"/><feMerge><feMergeNode in="shadowMatrixOuter1"/><feMergeNode in="SourceGraphic"/></feMerge></filter></defs><title>Artboard 1</title><g id="OPt-2"><g id="prog2_pro3_Mobile-Portrait_opt2-Copy-2" data-name="prog2 pro3 Mobile-Portrait opt2-Copy-2"><g id="nav"><g style="filter:url(#filter-1)"><g id="ic_home" data-name="ic home"><g id="Group"><path id="Shape" d="M21.66,8.86l-.9.69-1.44,1.12a3.76,3.76,0,0,0-1.53-2.35l2.78-2.14L19.71,5a1.07,1.07,0,0,1,.19-1.49L22,6.32a1.85,1.85,0,0,1,.35,1.39,1.8,1.8,0,0,1-.68,1.15Z" style="fill:#9c9"/><path id="Shape-2" data-name="Shape" d="M12.87,18.55c3.09-1.62,5.85-2.08,6.54-1,.57.91-.4,2.64-2.3,4.42l1.81,2.93h1.22a1.05,1.05,0,0,1,1,1.06H17.45l-.65-1.06-1-1.7-.41-.66a1.63,1.63,0,0,0,.23-.82A1.57,1.57,0,0,0,14,20.18h-.14l-1-1.64Z" style="fill:#9c9"/><path id="Shape-3" data-name="Shape" d="M4.23,8.45A1.72,1.72,0,0,1,5.9,7.07a1.59,1.59,0,0,1,.66.14,1.73,1.73,0,0,1,1.05,1.6V17a1,1,0,0,0,2,.45,1,1,0,0,1,0-.1l1-2.45L8.73,8.48h0a.9.9,0,0,1-.06-.22A5.34,5.34,0,0,1,11.53,2L16,3.57a1.05,1.05,0,0,1,.65,1.34L15.5,4.5A.84.84,0,0,0,14.41,5a.86.86,0,0,0,.51,1.1l1.16.42a1,1,0,0,1-1.34.63l-1.22-.46A1.05,1.05,0,0,0,14.2,7.9l2.34.87a2.92,2.92,0,0,1,1.75,2.56v.18H22V10.08c0-.4.49-.75.8-.93L23,9v3.52a1.79,1.79,0,0,1-1.79,1.78H17.09a4.59,4.59,0,0,0-1.06.13h0a4.6,4.6,0,0,0-3.43,4s0,.07,0,.1,0,.23,0,.34a4.64,4.64,0,0,0,1,2.92l.15.17a1.17,1.17,0,0,1,.2.66,1.15,1.15,0,0,1-1.14,1.17,1.11,1.11,0,0,1-.62-.19L9.83,22.26a1.07,1.07,0,0,0-.29,1.62l1,1.06h1.24a1.06,1.06,0,0,1,1,1.06H9.4a1.8,1.8,0,0,0-1.79-1.81V21.1a1.81,1.81,0,0,0,1.44-1.78.62.62,0,0,0,0-.13,1.66,1.66,0,0,1-.32,0,2.14,2.14,0,0,1-1.11-.32A2.17,2.17,0,0,1,6.56,17V8.81a.68.68,0,0,0-1.36,0,1.81,1.81,0,0,1-1,3.3V8.81a1.47,1.47,0,0,1,0-.36Z" style="fill:#9c9"/></g></g></g></g></g></g></svg>